<?xml version="1.0" encoding="utf-8"?>
<!-- Generator: Adobe Illustrator 23.1.1, SVG Export Plug-In . SVG Version: 6.00 Build 0) -->
<svg version="1.1" id="Layer_1" xmlns="http://www.w3.org/2000/svg" xmlns:xlink="http://www.w3.org/1999/xlink" x="0px" y="0px"
	 viewBox="0 0 1000 1000" style="enable-background:new 0 0 1000 1000;" xml:space="preserve">
<style type="text/css">
	.st0{fill:#FFCC00;}
</style>
<title>envelope</title>
<path class="st0" d="M492.8,581.6C375,523.7,155.5,416.5,85.2,382.4c-12.3-5.9-22.2,0.3-22.2,13.9v396.2c0,13.6,11,24.7,24.6,24.7
	h824.6c13.6,0,24.7-11,24.7-24.6V396.8c0-13.6-9.9-19.8-22.1-13.8C845,417.2,628,524,511.7,581.7
	C504.7,585.2,499.5,584.9,492.8,581.6L492.8,581.6z M178.6,352.2C283.8,403.7,389,455.3,494.3,506.5c4,2,10.3,2.6,14.2,0.7
	c140.8-69.1,281.4-138.7,422.1-208c5.1-2.5,6.9-5.4,6.9-11.3c-0.2-20.5,0-56.7,0.1-80.9c0-13.6-11.1-24.7-24.7-24.7H87.3
	c-13.6,0-24.8,11-24.8,24.7c0,24.3,0.2,60.6,0.5,81.9c0.1,3.4,3.8,8.3,7,9.9C106.1,316.9,142.4,334.4,178.6,352.2L178.6,352.2z"/>
</svg>
