<?xml version="1.0" encoding="utf-8"?>
<!-- Generator: Adobe Illustrator 23.1.1, SVG Export Plug-In . SVG Version: 6.00 Build 0) -->
<svg version="1.1" id="Layer_1" xmlns="http://www.w3.org/2000/svg" xmlns:xlink="http://www.w3.org/1999/xlink" x="0px" y="0px"
	 viewBox="0 0 1000 1000" style="enable-background:new 0 0 1000 1000;" xml:space="preserve">
<style type="text/css">
	.st0{fill:#FFCC00;}
</style>
<title>google-map</title>
<path class="st0" d="M787.6,280.3c-3.1-11.6-9.4-24.2-14.1-35c-56-134.6-178.3-182.8-277.1-182.8c-132.3,0-277.9,88.6-297.3,271.4
	v37.4c0,1.6,0.5,15.6,1.3,22.6c10.9,87.1,79.6,179.6,131,266.8c55.2,93.4,112.5,185.1,169.3,276.9c35-59.9,69.9-120.6,104.1-178.9
	c9.4-17.1,20.1-34.2,29.5-50.6c6.2-10.9,18.1-21.8,23.5-31.9c55.2-101.1,144.1-203,144.1-303.3v-41.3
	C801.9,320.7,788.4,282.6,787.6,280.3L787.6,280.3z M498.8,467.7c-38.9,0-81.4-19.4-102.4-73.1c-3.2-8.6-2.9-25.7-2.9-27.2v-24.1
	c0-68.4,58.1-99.6,108.7-99.6c62.2,0,110.3,49.8,110.3,112S561,467.7,498.8,467.7L498.8,467.7z"/>
</svg>
